<svg width="102" height="140" viewBox="0 0 102 140" fill="none" xmlns="http://www.w3.org/2000/svg">
<path d="M72.6597 117.179C68.4806 127.177 60.5329 135.126 50.5371 139.307C40.5414 135.126 32.5937 127.177 28.4145 117.179H42.6912C44.7506 120.269 47.4101 122.941 50.5371 125.033C53.6641 122.948 56.3236 120.269 58.3893 117.179H72.6597ZM88.4399 84.3536L101.074 98.6842V110.86H0V98.6842L12.6343 84.3536V47.674C12.6343 25.6662 28.4524 6.93785 50.5371 0C72.6218 6.93785 88.4399 25.6662 88.4399 47.674V84.3536ZM83.8284 98.223L75.8057 89.1241V47.674C75.8057 33.0274 65.8878 19.6825 50.5371 13.4271C35.1865 19.6825 25.2686 33.0211 25.2686 47.674V89.1241L17.2458 98.223H83.8284ZM50.5371 60.3112C47.1863 60.3112 43.9727 58.9798 41.6033 56.6099C39.2339 54.2399 37.9028 51.0256 37.9028 47.674C37.9028 44.3224 39.2339 41.1081 41.6033 38.7381C43.9727 36.3682 47.1863 35.0368 50.5371 35.0368C53.8879 35.0368 57.1015 36.3682 59.4709 38.7381C61.8403 41.1081 63.1714 44.3224 63.1714 47.674C63.1714 51.0256 61.8403 54.2399 59.4709 56.6099C57.1015 58.9798 53.8879 60.3112 50.5371 60.3112Z" fill="#2284F0"/>
</svg>
