<svg width="180" height="187" viewBox="0 0 180 187" fill="none" xmlns="http://www.w3.org/2000/svg">
<path d="M87.0732 0.695867C85.6998 0.752169 82.514 1.06746 80.8817 1.30393C64.5252 3.67986 50.0711 12.0688 40.3675 24.8268C35.5944 31.0988 32.0597 38.6432 30.3937 46.1088C29.9997 47.8655 29.1441 52.5948 28.8177 54.7793C28.3224 58.0561 28.086 61.8395 28.086 66.4338C28.086 72.4468 27.6807 79.7322 27.0053 86.0831C24.6413 108.356 18.4274 126.823 9.06146 139.401C6.9001 142.306 4.40103 145.008 2.386 146.607C1.31658 147.452 0.69744 148.251 0.26967 149.344C-0.0680428 150.211 -0.090557 151.945 0.213385 152.857C0.855039 154.771 2.28469 156.145 4.1196 156.629C5.03142 156.877 174.969 156.877 175.88 156.629C177.715 156.145 179.145 154.771 179.787 152.857C180.091 151.945 180.068 150.211 179.73 149.344C179.303 148.251 178.683 147.452 177.614 146.607C175.599 145.008 173.1 142.306 170.939 139.401C161.573 126.823 155.359 108.356 152.995 86.0831C152.319 79.7322 151.914 72.4468 151.914 66.4338C151.914 61.6369 151.666 57.9885 151.115 54.3514C150.833 52.4484 149.696 46.8971 149.167 44.7914C147.377 37.6748 143.82 30.3894 139.261 24.489C137.651 22.3946 136.39 20.987 134.083 18.6899C131.764 16.3703 130.132 14.9402 127.768 13.1611C116.33 4.53565 101.842 0.0990689 87.0732 0.695867ZM95.6961 12.2602C100.424 12.8233 104.128 13.7353 108.158 15.3343C114.462 17.8116 120.259 21.6401 125.122 26.5158C128.792 30.1867 131.516 33.8013 134.083 38.3955C135.918 41.6835 137.786 46.244 138.586 49.4081C139.52 53.124 139.801 58.9907 139.205 62.38C136.863 75.5096 124.976 96.1048 105.22 121.215C100.233 127.555 90.2589 139.547 89.955 139.558C89.8987 139.57 89.7974 139.502 89.7298 139.412C89.6623 139.322 88.5591 138.05 87.287 136.574C75.5909 122.983 64.0186 107.737 56.285 95.7219C47.3919 81.8942 42.2361 70.9041 40.6714 62.4138C40.435 61.1752 40.4125 60.6797 40.4125 57.8196C40.4125 53.3042 40.6939 51.4688 41.9434 47.6065C43.7333 42.0889 46.4238 36.8754 49.8684 32.2699C53.5495 27.3491 57.7034 23.4305 62.8141 20.0411C69.3995 15.6721 77.2232 12.8796 84.7092 12.2265C85.4859 12.1589 86.2739 12.0801 86.454 12.0576C87.3208 11.9337 94.3115 12.0913 95.6961 12.2602ZM142.042 88.977C143.302 100.26 145.891 111.971 149.212 121.441C152.24 130.055 156.361 138.286 160.717 144.445C161.156 145.054 161.483 145.571 161.46 145.605C161.426 145.628 147.546 145.639 130.604 145.628L99.7937 145.594L101.099 144.074C113.629 129.469 125.28 114.076 133.509 101.228C136.255 96.9493 139.858 90.8349 141.31 88.0311C141.535 87.5807 141.749 87.2091 141.783 87.2091C141.816 87.2091 141.94 88.0086 142.042 88.977ZM38.904 88.6392C46.7502 103.39 61.6771 124.132 78.7767 144.074L80.0825 145.594L49.3394 145.628C32.4312 145.639 18.5737 145.628 18.5399 145.605C18.5174 145.571 18.8439 145.054 19.2829 144.445C23.6394 138.286 27.7595 130.055 30.7877 121.441C34.1085 111.971 36.6526 100.474 37.9472 89.0333C38.0597 88.0987 38.1611 87.3217 38.1723 87.3217C38.1836 87.3217 38.51 87.9185 38.904 88.6392Z" fill="url(#paint0_linear)"/>
<path d="M87.917 32.9345C76.1308 33.8015 66.3371 42.2468 63.7705 53.7661C62.96 57.4145 62.96 61.7159 63.7705 65.3643C65.324 72.3232 69.6017 78.3812 75.6805 82.221C76.8963 82.9867 79.2265 84.1353 80.6674 84.6645C84.7987 86.1847 89.9095 86.6576 94.2209 85.9144C99.8607 84.9348 104.668 82.4462 108.686 78.4263C113.82 73.3028 116.487 66.8394 116.487 59.5652C116.487 55.8493 115.846 52.5613 114.484 49.3183C111.219 41.5036 104.566 35.7721 96.3598 33.6777C93.9282 33.0471 90.4611 32.7543 87.917 32.9345ZM93.1515 44.4088C96.2134 45.1294 98.5549 46.4244 100.761 48.6314C103.001 50.8835 104.364 53.372 105.05 56.4911C105.343 57.8311 105.332 61.3106 105.039 62.6618C104.611 64.6324 103.711 66.738 102.574 68.3933C101.831 69.4968 99.7594 71.5687 98.6562 72.3119C97.463 73.1227 95.9883 73.8546 94.6037 74.305C92.7913 74.8905 92.0821 74.9919 89.8307 74.9919C87.5792 74.9919 86.87 74.8905 85.0577 74.305C83.673 73.8546 82.1984 73.1227 81.0051 72.3119C79.9019 71.5687 77.8306 69.4968 77.0876 68.3933C75.9507 66.738 75.0501 64.6324 74.6223 62.6618C74.3296 61.3106 74.3184 57.8311 74.6111 56.4911C75.2978 53.372 76.6599 50.8835 78.9 48.6314C81.2302 46.3118 84.1121 44.7804 87.0727 44.3074C87.5342 44.2399 87.9958 44.161 88.0858 44.1385C88.1759 44.116 89.144 44.116 90.2247 44.1385C91.6768 44.1723 92.4423 44.2399 93.1515 44.4088Z" fill="url(#paint1_linear)"/>
<path d="M72.3598 165.814C70.9414 166.196 69.5117 167.322 68.8475 168.561C68.0933 169.98 67.9695 171.793 68.5436 173.2C68.8813 174.056 69.7031 175.407 70.5361 176.522C74.4648 181.769 79.7106 185.012 86.1272 186.15C88.221 186.521 91.7783 186.521 93.8721 186.15C98.5775 185.317 102.36 183.492 106.007 180.328C107.966 178.628 110.375 175.554 111.287 173.606C112.266 171.489 111.872 169.079 110.262 167.401C108.518 165.588 106.052 165.149 103.733 166.241C102.799 166.681 101.842 167.638 101.065 168.91C99.3093 171.815 96.45 173.966 93.1854 174.844C92.1835 175.126 91.9021 175.148 89.9996 175.148C88.0972 175.148 87.8158 175.126 86.8139 174.844C85.6319 174.529 83.9321 173.775 83.054 173.178C81.3429 172.018 79.8007 170.419 78.8439 168.775C77.6281 166.714 75.8157 165.633 73.6431 165.656C73.2603 165.656 72.675 165.735 72.3598 165.814Z" fill="url(#paint2_linear)"/>
<defs>
<linearGradient id="paint0_linear" x1="90" y1="156.815" x2="90" y2="0.642624" gradientUnits="userSpaceOnUse">
<stop stop-color="#2E49A5"/>
<stop offset="1" stop-color="#3670EE"/>
</linearGradient>
<linearGradient id="paint1_linear" x1="89.825" y1="86.26" x2="89.825" y2="32.882" gradientUnits="userSpaceOnUse">
<stop stop-color="#325BC6"/>
<stop offset="1" stop-color="#3568DF"/>
</linearGradient>
<linearGradient id="paint2_linear" x1="90.0013" y1="186.428" x2="90.0013" y2="165.65" gradientUnits="userSpaceOnUse">
<stop stop-color="#2D4297"/>
<stop offset="1" stop-color="#2E47A1"/>
</linearGradient>
</defs>
</svg>
