<svg width="2048" height="2048" viewBox="0 0 2048 2048" fill="none" xmlns="http://www.w3.org/2000/svg">
<rect width="2048" height="2048" fill="url(#paint0_linear)"/>
<path d="M1000.59 302.414C989.598 302.852 964.112 305.304 951.054 307.143C820.201 325.623 704.569 390.87 626.94 490.099C588.756 538.881 560.478 597.56 547.149 655.626C543.997 669.288 537.153 706.072 534.541 723.063C530.579 748.549 528.688 777.976 528.688 813.709C528.688 860.477 525.446 917.141 520.042 966.537C501.13 1139.77 451.419 1283.4 376.492 1381.23C359.201 1403.83 339.208 1424.85 323.088 1437.28C314.533 1443.85 309.58 1450.07 306.157 1458.56C303.456 1465.31 303.276 1478.79 305.707 1485.89C310.84 1500.78 322.278 1511.46 336.957 1515.23C344.251 1517.16 1703.75 1517.16 1711.04 1515.23C1725.72 1511.46 1737.16 1500.78 1742.29 1485.89C1744.72 1478.79 1744.54 1465.31 1741.84 1458.56C1738.42 1450.07 1733.47 1443.85 1724.91 1437.28C1708.79 1424.85 1688.8 1403.83 1671.51 1381.23C1596.58 1283.4 1546.87 1139.77 1527.96 966.537C1522.55 917.141 1519.31 860.477 1519.31 813.709C1519.31 776.399 1517.33 748.023 1512.92 719.735C1510.67 704.934 1501.57 661.757 1497.34 645.379C1483.02 590.028 1454.56 533.364 1418.09 487.471C1405.21 471.181 1395.12 460.234 1376.66 442.367C1358.11 424.326 1345.05 413.203 1326.14 399.365C1234.64 332.279 1118.74 297.772 1000.59 302.414ZM1069.57 392.359C1107.39 396.738 1137.02 403.832 1169.26 416.268C1219.69 435.536 1266.07 465.314 1304.98 503.236C1334.34 531.787 1356.13 559.9 1376.66 595.633C1391.34 621.207 1406.29 656.677 1412.69 681.287C1420.16 710.189 1422.41 755.818 1417.64 782.18C1398.91 884.299 1303.81 1044.48 1145.76 1239.79C1105.86 1289.1 1026.07 1382.37 1023.64 1382.46C1023.19 1382.54 1022.38 1382.02 1021.84 1381.32C1021.3 1380.62 1012.47 1370.72 1002.3 1359.25C908.727 1253.54 816.149 1134.95 754.28 1041.51C683.135 933.957 641.889 848.478 629.371 782.442C627.48 772.809 627.3 768.955 627.3 746.71C627.3 711.59 629.551 697.314 639.548 667.274C653.867 624.36 675.39 583.81 702.948 547.99C732.396 509.717 765.627 479.239 806.513 452.877C859.196 418.896 921.786 397.176 981.673 392.096C987.887 391.571 994.191 390.958 995.632 390.783C1002.57 389.819 1058.49 391.045 1069.57 392.359ZM1440.33 989.045C1450.42 1076.8 1471.13 1167.88 1497.7 1241.54C1521.92 1308.54 1554.88 1372.56 1589.74 1420.47C1593.25 1425.2 1595.86 1429.22 1595.68 1429.49C1595.41 1429.66 1484.37 1429.75 1348.83 1429.66L1102.35 1429.4L1112.8 1417.58C1213.03 1303.98 1306.24 1184.26 1372.07 1084.33C1394.04 1051.05 1422.86 1003.5 1434.48 981.688C1436.28 978.185 1437.99 975.295 1438.26 975.295C1438.53 975.295 1439.52 981.513 1440.33 989.045ZM615.232 986.417C678.002 1101.15 797.417 1262.47 934.213 1417.58L944.66 1429.4L698.715 1429.66C563.45 1429.75 452.59 1429.66 452.32 1429.49C452.139 1429.22 454.751 1425.2 458.263 1420.47C493.115 1372.56 526.076 1308.54 550.301 1241.54C576.868 1167.88 597.221 1078.46 607.577 989.483C608.478 982.214 609.288 976.17 609.379 976.17C609.469 976.17 612.08 980.812 615.232 986.417Z" fill="white"/>
<path d="M1007.34 553.157C913.048 559.901 834.699 625.587 814.166 715.181C807.682 743.557 807.682 777.013 814.166 805.389C826.594 859.514 860.815 906.632 909.446 936.497C919.172 942.453 937.814 951.386 949.341 955.502C982.392 967.326 1023.28 971.004 1057.77 965.224C1102.89 957.604 1141.34 938.249 1173.49 906.983C1214.56 867.133 1235.9 816.862 1235.9 760.285C1235.9 731.384 1230.77 705.81 1219.87 680.587C1193.76 619.806 1140.53 575.228 1074.88 558.938C1055.43 554.033 1027.69 551.756 1007.34 553.157ZM1049.21 642.402C1073.71 648.007 1092.44 658.079 1110.09 675.245C1128.01 692.761 1138.91 712.116 1144.4 736.376C1146.75 746.798 1146.66 773.86 1144.31 784.37C1140.89 799.697 1133.69 816.074 1124.59 828.948C1118.65 837.531 1102.08 853.646 1093.25 859.426C1083.71 865.732 1071.91 871.425 1060.83 874.928C1046.33 879.482 1040.66 880.271 1022.65 880.271C1004.64 880.271 998.962 879.482 984.463 874.928C973.386 871.425 961.589 865.732 952.043 859.426C943.217 853.646 926.647 837.531 920.703 828.948C911.607 816.074 904.403 799.697 900.981 784.37C898.639 773.86 898.549 746.798 900.89 736.376C906.384 712.116 917.281 692.761 935.202 675.245C953.844 657.203 976.898 645.292 1000.58 641.614C1004.28 641.088 1007.97 640.475 1008.69 640.3C1009.41 640.125 1017.15 640.125 1025.8 640.3C1037.42 640.563 1043.54 641.088 1049.21 642.402Z" fill="white"/>
<path d="M882.882 1586.66C871.535 1589.64 860.098 1598.4 854.784 1608.03C848.75 1619.07 847.76 1633.17 852.353 1644.11C855.054 1650.77 861.629 1661.28 868.293 1669.95C899.723 1710.76 941.689 1735.99 993.021 1744.83C1009.77 1747.72 1038.23 1747.72 1054.98 1744.83C1092.62 1738.35 1122.88 1724.16 1152.06 1699.55C1167.73 1686.33 1187 1662.42 1194.3 1647.27C1202.13 1630.8 1198.98 1612.06 1186.1 1599.01C1172.14 1584.91 1152.42 1581.49 1133.87 1589.99C1126.4 1593.41 1118.74 1600.85 1112.53 1610.75C1098.48 1633.34 1075.6 1650.07 1049.49 1656.9C1041.47 1659.09 1039.22 1659.27 1024 1659.27C1008.78 1659.27 1006.53 1659.09 998.515 1656.9C989.059 1654.45 975.46 1648.58 968.436 1643.94C954.747 1634.92 942.41 1622.48 934.755 1609.7C925.029 1593.67 910.529 1585.26 893.148 1585.44C890.087 1585.44 885.404 1586.05 882.882 1586.66Z" fill="white"/>
<defs>
<linearGradient id="paint0_linear" x1="1024" y1="0" x2="1024" y2="2048" gradientUnits="userSpaceOnUse">
<stop stop-color="#3670EE"/>
<stop offset="1" stop-color="#2D4297"/>
</linearGradient>
</defs>
</svg>
