<svg width="2160" height="3840" viewBox="0 0 2160 3840" fill="none" xmlns="http://www.w3.org/2000/svg">
<rect width="2160" height="3840" fill="url(#paint0_linear)"/>
<path d="M1071.87 1662.15C1068.05 1662.3 1059.21 1663.18 1054.67 1663.84C1009.24 1670.44 969.086 1693.74 942.132 1729.18C928.873 1746.6 919.055 1767.56 914.427 1788.29C913.332 1793.17 910.956 1806.31 910.049 1812.38C908.673 1821.48 908.017 1831.99 908.017 1844.75C908.017 1861.46 906.891 1881.69 905.015 1899.33C898.448 1961.2 881.187 2012.5 855.171 2047.44C849.167 2055.51 842.225 2063.02 836.628 2067.46C833.657 2069.8 831.937 2072.02 830.749 2075.06C829.811 2077.47 829.748 2082.28 830.593 2084.82C832.375 2090.13 836.346 2093.95 841.443 2095.3C843.976 2095.98 1316.02 2095.98 1318.56 2095.3C1323.65 2093.95 1327.62 2090.13 1329.41 2084.82C1330.25 2082.28 1330.19 2077.47 1329.25 2075.06C1328.06 2072.02 1326.34 2069.8 1323.37 2067.46C1317.77 2063.02 1310.83 2055.51 1304.83 2047.44C1278.81 2012.5 1261.55 1961.2 1254.99 1899.33C1253.11 1881.69 1251.98 1861.46 1251.98 1844.75C1251.98 1831.43 1251.3 1821.29 1249.76 1811.19C1248.98 1805.9 1245.82 1790.48 1244.35 1784.64C1239.38 1764.87 1229.5 1744.63 1216.84 1728.24C1212.36 1722.42 1208.86 1718.51 1202.45 1712.13C1196.01 1705.69 1191.48 1701.72 1184.91 1696.77C1153.14 1672.81 1112.9 1660.49 1071.87 1662.15ZM1095.82 1694.27C1108.96 1695.83 1119.24 1698.37 1130.44 1702.81C1147.95 1709.69 1164.05 1720.33 1177.56 1733.87C1187.76 1744.07 1195.32 1754.11 1202.45 1766.87C1207.55 1776 1212.74 1788.67 1214.96 1797.46C1217.56 1807.78 1218.34 1824.08 1216.68 1833.49C1210.18 1869.96 1177.16 1927.17 1122.28 1996.92C1108.42 2014.53 1080.72 2047.85 1079.87 2047.88C1079.72 2047.91 1079.44 2047.72 1079.25 2047.47C1079.06 2047.22 1076 2043.69 1072.46 2039.59C1039.97 2001.83 1007.83 1959.48 986.347 1926.11C961.644 1887.7 947.323 1857.17 942.976 1833.59C942.319 1830.15 942.257 1828.77 942.257 1820.82C942.257 1808.28 943.039 1803.18 946.51 1792.45C951.481 1777.13 958.955 1762.65 968.523 1749.85C978.749 1736.18 990.287 1725.3 1004.48 1715.88C1022.78 1703.75 1044.51 1695.99 1065.3 1694.18C1067.46 1693.99 1069.65 1693.77 1070.15 1693.71C1072.56 1693.36 1091.98 1693.8 1095.82 1694.27ZM1224.56 1907.37C1228.06 1938.71 1235.25 1971.24 1244.48 1997.55C1252.89 2021.48 1264.33 2044.34 1276.44 2061.45C1277.66 2063.14 1278.56 2064.58 1278.5 2064.67C1278.41 2064.74 1239.85 2064.77 1192.79 2064.74L1107.2 2064.64L1110.83 2060.42C1145.64 2019.85 1178 1977.09 1200.86 1941.4C1208.49 1929.52 1218.49 1912.53 1222.53 1904.75C1223.15 1903.49 1223.75 1902.46 1223.84 1902.46C1223.93 1902.46 1224.28 1904.68 1224.56 1907.37ZM938.067 1906.43C959.862 1947.41 1001.33 2005.03 1048.82 2060.42L1052.45 2064.64L967.054 2064.74C920.087 2064.77 881.594 2064.74 881.5 2064.67C881.437 2064.58 882.344 2063.14 883.564 2061.45C895.665 2044.34 907.11 2021.48 915.521 1997.55C924.746 1971.24 931.813 1939.31 935.409 1907.53C935.722 1904.93 936.003 1902.78 936.034 1902.78C936.065 1902.78 936.972 1904.43 938.067 1906.43Z" fill="white"/>
<path d="M1074.21 1751.7C1041.47 1754.11 1014.27 1777.57 1007.14 1809.56C1004.89 1819.7 1004.89 1831.65 1007.14 1841.78C1011.46 1861.11 1023.34 1877.94 1040.22 1888.61C1043.6 1890.73 1050.07 1893.92 1054.08 1895.39C1065.55 1899.62 1079.75 1900.93 1091.73 1898.87C1107.39 1896.14 1120.74 1889.23 1131.91 1878.07C1146.17 1863.83 1153.58 1845.88 1153.58 1825.67C1153.58 1815.35 1151.79 1806.22 1148.01 1797.21C1138.94 1775.5 1120.46 1759.58 1097.67 1753.76C1090.91 1752.01 1081.28 1751.2 1074.21 1751.7ZM1088.75 1783.57C1097.26 1785.57 1103.76 1789.17 1109.89 1795.3C1116.12 1801.56 1119.9 1808.47 1121.81 1817.13C1122.62 1820.86 1122.59 1830.52 1121.78 1834.27C1120.59 1839.75 1118.09 1845.6 1114.93 1850.2C1112.86 1853.26 1107.11 1859.02 1104.05 1861.08C1100.73 1863.33 1096.63 1865.37 1092.79 1866.62C1087.75 1868.24 1085.78 1868.53 1079.53 1868.53C1073.28 1868.53 1071.31 1868.24 1066.27 1866.62C1062.43 1865.37 1058.33 1863.33 1055.01 1861.08C1051.95 1859.02 1046.2 1853.26 1044.13 1850.2C1040.97 1845.6 1038.47 1839.75 1037.28 1834.27C1036.47 1830.52 1036.44 1820.86 1037.25 1817.13C1039.16 1808.47 1042.94 1801.56 1049.17 1795.3C1055.64 1788.86 1063.65 1784.6 1071.87 1783.29C1073.15 1783.1 1074.43 1782.88 1074.68 1782.82C1074.93 1782.76 1077.62 1782.76 1080.62 1782.82C1084.66 1782.92 1086.78 1783.1 1088.75 1783.57Z" fill="white"/>
<path d="M1031 2120.81C1027.06 2121.87 1023.09 2125 1021.24 2128.44C1019.15 2132.38 1018.81 2137.42 1020.4 2141.33C1021.34 2143.7 1023.62 2147.46 1025.94 2150.55C1036.85 2165.13 1051.42 2174.14 1069.24 2177.3C1075.06 2178.33 1084.94 2178.33 1090.76 2177.3C1103.83 2174.98 1114.33 2169.92 1124.47 2161.13C1129.91 2156.4 1136.6 2147.86 1139.13 2142.45C1141.85 2136.57 1140.76 2129.88 1136.29 2125.22C1131.44 2120.18 1124.59 2118.96 1118.15 2122C1115.55 2123.22 1112.9 2125.87 1110.74 2129.41C1105.86 2137.48 1097.92 2143.45 1088.85 2145.89C1086.07 2146.68 1085.29 2146.74 1080 2146.74C1074.72 2146.74 1073.93 2146.68 1071.15 2145.89C1067.87 2145.02 1063.15 2142.92 1060.71 2141.26C1055.95 2138.04 1051.67 2133.6 1049.01 2129.03C1045.64 2123.31 1040.6 2120.31 1034.57 2120.37C1033.5 2120.37 1031.88 2120.59 1031 2120.81Z" fill="white"/>
<defs>
<linearGradient id="paint0_linear" x1="1080" y1="0" x2="1080" y2="3840" gradientUnits="userSpaceOnUse">
<stop stop-color="#3670EE"/>
<stop offset="1" stop-color="#2D4297"/>
</linearGradient>
</defs>
</svg>
